<?xml version="1.0" encoding="utf-8"?>
<svg width="25" height="25" viewBox="0 0 25 25" fill="none" xmlns="http://www.w3.org/2000/svg">
  <g>
    <path d="M20.8333 10.4167C20.8333 16.1693 16.1693 20.8333 10.4167 20.8333C4.66406 20.8333 0 16.1693 0 10.4167C0 4.66406 4.66406 0 10.4167 0C16.1693 0 20.8333 4.66406 20.8333 10.4167C20.8333 10.4167 20.8333 10.4167 20.8333 10.4167Z" fill="#F44336" transform="translate(2.083 2.083)" />
    <path d="M7.36458 0L8.8375 1.47292L1.47292 8.8375L0 7.36458L7.36458 0L7.36458 0Z" fill="#FFFFFF" transform="translate(8.081 8.081)" />
    <path d="M8.8375 7.36458L7.36458 8.8375L0 1.47292L1.47292 0L8.8375 7.36458L8.8375 7.36458Z" fill="#FFFFFF" transform="translate(8.081 8.081)" />
  </g>
</svg>