<?xml version="1.0" encoding="utf-8"?>
<svg width="25" height="25" viewBox="0 0 25 25" fill="none" xmlns="http://www.w3.org/2000/svg">
  <g>
    <path d="M8.33334 0C3.74083 0 0 3.74083 0 8.33334C0 12.9258 3.74083 16.6667 8.33334 16.6667C10.3304 16.6667 12.1645 15.9575 13.6019 14.7803C13.6019 14.7803 18.5775 19.7559 18.5775 19.7559C18.7865 19.9736 19.0969 20.0612 19.3889 19.9851C19.6809 19.909 19.909 19.6809 19.9851 19.3889C20.0612 19.0969 19.9736 18.7865 19.7559 18.5775C19.7559 18.5775 14.7803 13.6019 14.7803 13.6019C15.9575 12.1645 16.6667 10.3304 16.6667 8.33334C16.6667 3.74083 12.9258 0 8.33334 0C8.33334 0 8.33334 0 8.33334 0ZM8.33333 1.66667C12.0251 1.66667 15 4.64156 15 8.33333C15 12.0251 12.0251 15 8.33333 15C4.64156 15 1.66667 12.0251 1.66667 8.33333C1.66667 4.64156 4.64156 1.66667 8.33333 1.66667C8.33333 1.66667 8.33333 1.66667 8.33333 1.66667Z" fill="#000000" transform="translate(2.5 2.5)" />
  </g>
</svg>